<?xml version="1.0" encoding="UTF-8" standalone="no"?>
<!DOCTYPE svg PUBLIC "-//W3C//DTD SVG 1.1//EN"
 "http://www.w3.org/Graphics/SVG/1.1/DTD/svg11.dtd">
<!-- Generated by graphviz version 2.43.0 (0)
 -->
<!-- Title: G Pages: 1 -->
<svg width="792pt" height="438pt"
 viewBox="0.00 0.00 792.20 438.20" xmlns="http://www.w3.org/2000/svg" xmlns:xlink="http://www.w3.org/1999/xlink">
<g id="graph0" class="graph" transform="scale(1 1) rotate(0) translate(21.6 416.6)">
<title>G</title>
<polygon fill="#fcfcfb" stroke="transparent" points="-21.6,21.6 -21.6,-416.6 770.6,-416.6 770.6,21.6 -21.6,21.6"/>
<!-- c1 -->
<g id="node1" class="node">
<title>c1</title>
<ellipse fill="#e3eefb" stroke="#2a78d6" stroke-width="1.2" cx="296" cy="-91" rx="20" ry="20"/>
<text text-anchor="middle" x="296" y="-88.2" font-family="Inter" font-size="11.00" fill="#0b0b0b">C1</text>
</g>
<!-- and1 -->
<g id="node5" class="node">
<title>and1</title>
<ellipse fill="white" stroke="#52514e" stroke-width="1.2" cx="403" cy="-167" rx="15" ry="15"/>
<text text-anchor="middle" x="403" y="-164.2" font-family="Inter" font-size="11.00" fill="#0b0b0b">∧</text>
</g>
<!-- c1&#45;&gt;and1 -->
<g id="edge1" class="edge">
<title>c1&#45;&gt;and1</title>
<path fill="none" stroke="#8a8984" stroke-width="1.2" d="M312.95,-102.54C332.29,-116.54 364.77,-140.05 384.7,-154.48"/>
<polygon fill="#8a8984" stroke="#8a8984" stroke-width="1.2" points="383.35,-156.52 390.45,-158.64 386.22,-152.55 383.35,-156.52"/>
</g>
<!-- or1 -->
<g id="node7" class="node">
<title>or1</title>
<ellipse fill="white" stroke="#52514e" stroke-width="1.2" cx="403" cy="-91" rx="15" ry="15"/>
<text text-anchor="middle" x="403" y="-88.2" font-family="Inter" font-size="11.00" fill="#0b0b0b">∨</text>
</g>
<!-- c1&#45;&gt;or1 -->
<g id="edge7" class="edge">
<title>c1&#45;&gt;or1</title>
<path fill="none" stroke="#8a8984" stroke-width="1.2" d="M316.26,-91C334.55,-91 361.99,-91 380.88,-91"/>
<polygon fill="#8a8984" stroke="#8a8984" stroke-width="1.2" points="380.9,-93.45 387.9,-91 380.9,-88.55 380.9,-93.45"/>
</g>
<!-- c2 -->
<g id="node2" class="node">
<title>c2</title>
<ellipse fill="#e3eefb" stroke="#2a78d6" stroke-width="1.2" cx="102" cy="-169" rx="20" ry="20"/>
<text text-anchor="middle" x="102" y="-166.2" font-family="Inter" font-size="11.00" fill="#0b0b0b">C2</text>
</g>
<!-- c2&#45;&gt;and1 -->
<g id="edge2" class="edge">
<title>c2&#45;&gt;and1</title>
<path fill="none" stroke="#8a8984" stroke-width="1.2" d="M120.76,-176.51C157.43,-191.01 244.08,-220.18 316,-205 340.53,-199.82 366.59,-187.18 383.51,-177.89"/>
<polygon fill="#8a8984" stroke="#8a8984" stroke-width="1.2" points="384.83,-179.96 389.74,-174.39 382.43,-175.68 384.83,-179.96"/>
</g>
<!-- and2 -->
<g id="node6" class="node">
<title>and2</title>
<ellipse fill="white" stroke="#52514e" stroke-width="1.2" cx="296" cy="-20" rx="15" ry="15"/>
<text text-anchor="middle" x="296" y="-17.2" font-family="Inter" font-size="11.00" fill="#0b0b0b">∧</text>
</g>
<!-- c2&#45;&gt;and2 -->
<g id="edge5" class="edge">
<title>c2&#45;&gt;and2</title>
<path fill="none" stroke="#8a8984" stroke-width="1.2" d="M118.39,-157.06C153.72,-129.64 240.46,-62.33 277.63,-33.48"/>
<polygon fill="#8a8984" stroke="#8a8984" stroke-width="1.2" points="279.53,-35.1 283.56,-28.88 276.53,-31.23 279.53,-35.1"/>
</g>
<!-- c3 -->
<g id="node3" class="node">
<title>c3</title>
<ellipse fill="#e3eefb" stroke="#2a78d6" stroke-width="1.2" cx="102" cy="-20" rx="20" ry="20"/>
<text text-anchor="middle" x="102" y="-17.2" font-family="Inter" font-size="11.00" fill="#0b0b0b">C3</text>
</g>
<!-- c3&#45;&gt;and2 -->
<g id="edge6" class="edge">
<title>c3&#45;&gt;and2</title>
<path fill="none" stroke="#8a8984" stroke-width="1.2" d="M122.11,-20C158.06,-20 235.54,-20 273.35,-20"/>
<polygon fill="#8a8984" stroke="#8a8984" stroke-width="1.2" points="273.79,-22.45 280.79,-20 273.79,-17.55 273.79,-22.45"/>
</g>
<!-- c4 -->
<g id="node4" class="node">
<title>c4</title>
<ellipse fill="#e3eefb" stroke="#2a78d6" stroke-width="1.2" cx="296" cy="-167" rx="20" ry="20"/>
<text text-anchor="middle" x="296" y="-164.2" font-family="Inter" font-size="11.00" fill="#0b0b0b">C4</text>
</g>
<!-- c4&#45;&gt;and1 -->
<g id="edge3" class="edge">
<title>c4&#45;&gt;and1</title>
<path fill="none" stroke="#8a8984" stroke-width="1.2" d="M316.26,-167C334.55,-167 361.99,-167 380.88,-167"/>
<polygon fill="#8a8984" stroke="#8a8984" stroke-width="1.2" points="380.9,-169.45 387.9,-167 380.9,-164.55 380.9,-169.45"/>
</g>
<!-- e1 -->
<g id="node9" class="node">
<title>e1</title>
<ellipse fill="#dcf3ea" stroke="#1baf7a" stroke-width="1.2" cx="510" cy="-167" rx="20" ry="20"/>
<text text-anchor="middle" x="510" y="-164.2" font-family="Inter" font-size="11.00" fill="#0b0b0b">E1</text>
</g>
<!-- and1&#45;&gt;e1 -->
<g id="edge4" class="edge">
<title>and1&#45;&gt;e1</title>
<path fill="none" stroke="#8a8984" stroke-width="1.2" d="M418.16,-167C434.61,-167 462.11,-167 482.55,-167"/>
<polygon fill="#8a8984" stroke="#8a8984" stroke-width="1.2" points="482.73,-169.45 489.73,-167 482.73,-164.55 482.73,-169.45"/>
</g>
<!-- and2&#45;&gt;or1 -->
<g id="edge8" class="edge">
<title>and2&#45;&gt;or1</title>
<path fill="none" stroke="#8a8984" stroke-width="1.2" d="M309.04,-28.14C327.48,-40.61 362.8,-64.49 384.2,-78.96"/>
<polygon fill="#8a8984" stroke="#8a8984" stroke-width="1.2" points="382.92,-81.06 390.1,-82.95 385.67,-77 382.92,-81.06"/>
</g>
<!-- e2 -->
<g id="node10" class="node">
<title>e2</title>
<ellipse fill="#dcf3ea" stroke="#1baf7a" stroke-width="1.2" cx="510" cy="-91" rx="20" ry="20"/>
<text text-anchor="middle" x="510" y="-88.2" font-family="Inter" font-size="11.00" fill="#0b0b0b">E2</text>
</g>
<!-- or1&#45;&gt;e2 -->
<g id="edge9" class="edge">
<title>or1&#45;&gt;e2</title>
<path fill="none" stroke="#8a8984" stroke-width="1.2" d="M418.16,-91C434.61,-91 462.11,-91 482.55,-91"/>
<polygon fill="#8a8984" stroke="#8a8984" stroke-width="1.2" points="482.73,-93.45 489.73,-91 482.73,-88.55 482.73,-93.45"/>
</g>
<!-- nor -->
<g id="node8" class="node">
<title>nor</title>
<ellipse fill="white" stroke="#52514e" stroke-width="1.2" cx="619.5" cy="-129" rx="17.5" ry="17.5"/>
<text text-anchor="middle" x="619.5" y="-126.2" font-family="Inter" font-size="11.00" fill="#0b0b0b">¬∨</text>
</g>
<!-- e3 -->
<g id="node11" class="node">
<title>e3</title>
<ellipse fill="#fde8df" stroke="#eb6834" stroke-width="1.2" cx="729" cy="-129" rx="20" ry="20"/>
<text text-anchor="middle" x="729" y="-126.2" font-family="Inter" font-size="11.00" fill="#0b0b0b">E3</text>
</g>
<!-- nor&#45;&gt;e3 -->
<g id="edge12" class="edge">
<title>nor&#45;&gt;e3</title>
<path fill="none" stroke="#8a8984" stroke-width="1.2" d="M637.3,-129C654.55,-129 681.64,-129 701.73,-129"/>
<polygon fill="#8a8984" stroke="#8a8984" stroke-width="1.2" points="701.78,-131.45 708.78,-129 701.78,-126.55 701.78,-131.45"/>
</g>
<!-- e1&#45;&gt;nor -->
<g id="edge10" class="edge">
<title>e1&#45;&gt;nor</title>
<path fill="none" stroke="#8a8984" stroke-width="1.2" d="M529.24,-160.55C547.67,-154.04 576.19,-143.96 596.01,-136.95"/>
<polygon fill="#8a8984" stroke="#8a8984" stroke-width="1.2" points="596.85,-139.25 602.63,-134.61 595.21,-134.63 596.85,-139.25"/>
</g>
<!-- e2&#45;&gt;nor -->
<g id="edge11" class="edge">
<title>e2&#45;&gt;nor</title>
<path fill="none" stroke="#8a8984" stroke-width="1.2" d="M529.24,-97.45C547.67,-103.96 576.19,-114.04 596.01,-121.05"/>
<polygon fill="#8a8984" stroke="#8a8984" stroke-width="1.2" points="595.21,-123.37 602.63,-123.39 596.85,-118.75 595.21,-123.37"/>
</g>
<!-- k -->
<g id="node12" class="node">
<title>k</title>
<text text-anchor="start" x="11" y="-380.2" font-family="Inter" font-weight="bold" font-size="11.00" fill="#0b0b0b">Causes</text>
<text text-anchor="start" x="11" y="-361.2" font-family="Inter" font-size="11.00" fill="#0b0b0b">C1 tier ∈ {GOLD, PLATINUM}</text>
<text text-anchor="start" x="11" y="-343.2" font-family="Inter" font-size="11.00" fill="#0b0b0b">C2 stay ≥ 3 nights</text>
<text text-anchor="start" x="11" y="-325.2" font-family="Inter" font-size="11.00" fill="#0b0b0b">C3 booked ≥ 30 days ahead</text>
<text text-anchor="start" x="11" y="-307.2" font-family="Inter" font-size="11.00" fill="#0b0b0b">C4 room ≠ SUITE</text>
<text text-anchor="start" x="11" y="-290.2" font-family="Inter" font-weight="bold" font-size="11.00" fill="#0b0b0b">Effects</text>
<text text-anchor="start" x="11" y="-271.2" font-family="Inter" font-size="11.00" fill="#0b0b0b">E1 free upgrade = C1 ∧ C2 ∧ C4</text>
<text text-anchor="start" x="11" y="-253.2" font-family="Inter" font-size="11.00" fill="#0b0b0b">E2 free breakfast = C1 ∨ (C2 ∧ C3)</text>
<text text-anchor="start" x="11" y="-235.2" font-family="Inter" font-size="11.00" fill="#0b0b0b">E3 no benefit = ¬E1 ∧ ¬E2</text>
</g>
</g>
</svg>
